<svg width="32" height="32" viewBox="-4 -1 32 32" version="1.1" xmlns="http://www.w3.org/2000/svg" xmlns:xlink="http://www.w3.org/1999/xlink">
    <g id="Page-1" stroke="none" stroke-width="1" fill="none" fill-rule="evenodd">
        <g id="edit-session" transform="translate(0, 1)" fill="#ffffffcc" fill-rule="nonzero">
            <polygon id="Path" points="20.1906332 26 20.1906332 14 22.2096966 14 22.2096966 26 20.1906332 28 2.01906332 28 0 26 0 2 2.01906332 0 8.11437994 0 8.11437994 2 2.01906332 2 2.01906332 26"></polygon>
            <polygon id="Path" points="10.0954378 14 12.1143799 14 12.1143799 17 15.1527085 17 15.1527085 19 12.1145011 19 12.1145011 22 10.0954378 22 10.0954378 19 7.05731111 19 7.05731111 17 10.0954378 17"></polygon>
            <polygon id="Path" points="15.1527085 23 7.05731111 23 7.05731111 25 15.1527085 25"></polygon>
        </g>
        <g id="device-camera" transform="translate(10, 0)" fill="#ffffffcc" fill-rule="nonzero">
            <path d="M10.2484,1.18181818 L13.4,1.18181818 L14,1.77272727 L14,12.4090909 L13.4,13 L0.6,13 L0,12.4090909 L0,1.77272727 L0.6,1.18181818 L3.7516,1.18181818 L4.7752,0.172545455 L5.2,0 L8.8,0 L9.2248,0.172545455 L10.2484,1.18181818 Z M2.4,2.36363636 C1.7372583,2.36363636 1.2,2.89275439 1.2,3.54545455 C1.2,4.1981547 1.7372583,4.72727273 2.4,4.72727273 C3.0627417,4.72727273 3.6,4.1981547 3.6,3.54545455 C3.6,2.89275439 3.0627417,2.36363636 2.4,2.36363636 Z M7,3.54545455 C5.0117749,3.54545455 3.4,5.13280861 3.4,7.09090909 C3.4,9.04900957 5.0117749,10.6363636 7,10.6363636 C8.9882251,10.6363636 10.6,9.04900957 10.6,7.09090909 C10.6,5.13280861 8.9882251,3.54545455 7,3.54545455 Z" id="Shape"></path>
        </g>
    </g>
</svg>
