
<svg width="32" height="32" viewBox="-4 -1 32 32" version="1.1" xmlns="http://www.w3.org/2000/svg" xmlns:xlink="http://www.w3.org/1999/xlink">
    <g id="Page-1" stroke="none" stroke-width="1" fill="none" fill-rule="evenodd">
        <g id="debug-restart" transform="translate(8, 0)" fill="#ffffffcc" fill-rule="nonzero">
            <path d="M14.0408163,8.00031061 C14.041768,10.8328636 12.1018092,13.2801925 9.38776077,13.8703103 C6.67371238,14.4604281 3.92509136,13.032541 2.79510204,10.4454756 L0.978285714,11.1987571 C2.46280384,14.6708118 6.12937884,16.6041888 9.76245268,15.8306292 C13.3955265,15.0570695 15.999124,11.7886377 16,8.00031061 C16,4.57728614 13.8666482,1.53349253 10.6927339,0.428640424 C7.51881954,-0.676211686 4.0079529,0.402752662 1.95918367,3.11264704 L1.95918367,0.667482017 L0,0.667482017 L0,6.00044827 L0.979591837,7.00037944 L5.55102041,7.00037944 L5.55102041,5.0005171 L3.072,5.0005171 C4.40160018,2.64762621 7.11397586,1.5001144 9.6843381,2.20306682 C12.2547003,2.90601924 14.0417241,5.2840439 14.0408163,8.00031061 Z" id="Path"></path>
        </g>
        <circle id="Oval" fill="#ffffffcc" fill-rule="nonzero" cx="16" cy="8" r="2"></circle>
        <g id="edit-session" transform="translate(0, 1)" fill="#ffffffcc" fill-rule="nonzero">
            <polygon id="Path" points="20.1906332 26 20.1906332 16 22.2096966 15 22.2096966 26 20.1906332 28 2.01906332 28 0 26 0 2 2.01906332 0 6.11437994 0 6.11437994 2 2.01906332 2 2.01906332 26"></polygon>
            <polygon id="Path" points="10.0954378 14 12.1143799 14 12.1143799 17 15.1527085 17 15.1527085 19 12.1145011 19 12.1145011 22 10.0954378 22 10.0954378 19 7.05731111 19 7.05731111 17 10.0954378 17"></polygon>
            <polygon id="Path" points="15.1527085 23 7.05731111 23 7.05731111 25 15.1527085 25"></polygon>
        </g>
    </g>
</svg>
