<svg width="32" height="32" viewBox="-4 -1 32 32" version="1.1" xmlns="http://www.w3.org/2000/svg" xmlns:xlink="http://www.w3.org/1999/xlink">
    <g id="Page-1" stroke="none" stroke-width="1" fill="none" fill-rule="evenodd">
        <g id="edit-session" transform="translate(0, 1)" fill="#ffffffcc" fill-rule="nonzero">
            <polygon id="Path" points="20.1906332 26 20.1906332 11 22.2096966 11 22.2096966 26 20.1906332 28 2.01906332 28 0 26 0 2 2.01906332 0 12.1143799 0 12.1143799 2 2.01906332 2 2.01906332 26"></polygon>
            <polygon id="Path" points="10.0954378 6 12.1143799 6 12.1143799 10 16.1527085 10 16.1527085 12 12.1145011 12 12.1145011 16 10.0954378 16 10.0954378 12 6.05731111 12 6.05731111 10 10.0954378 10"></polygon>
            <polygon id="Path" points="16.1527085 20 6.05731111 20 6.05731111 22 16.1527085 22"></polygon>
        </g>
        <g id="gear" transform="translate(13, 0)" fill="#ffffffcc" fill-rule="nonzero">
            <path d="M6.6,0 L6.99285714,1.88571429 L8.64285714,0.864285714 L10.2142857,2.43571429 L9.11428571,4.08571429 L11,4.4 L11,6.6 L9.11428571,6.99285714 L10.2142857,8.64285714 L8.64285714,10.2142857 L6.99285714,9.11428571 L6.6,11 L4.4,11 L4.00714286,9.11428571 L2.35714286,10.1357143 L0.785714286,8.56428571 L1.88571429,6.91428571 L0,6.6 L0,4.4 L1.88571429,4.00714286 L0.864285714,2.35714286 L2.43571429,0.785714286 L4.08571429,1.88571429 L4.4,0 L6.6,0 Z M5.5,7.46428571 C6.67857143,7.46428571 7.46428571,6.67857143 7.46428571,5.5 C7.46428571,4.32142857 6.67857143,3.53571429 5.5,3.53571429 C4.32142857,3.53571429 3.53571429,4.32142857 3.53571429,5.5 C3.53571429,6.67857143 4.32142857,7.46428571 5.5,7.46428571 Z" id="Shape"></path>
        </g>
    </g>
</svg>
