<svg width="32" height="32" viewBox="-4 -1 32 32" version="1.1" xmlns="http://www.w3.org/2000/svg" xmlns:xlink="http://www.w3.org/1999/xlink">
    <g id="Page-1" stroke="none" stroke-width="1" fill="none" fill-rule="evenodd">
        <g id="edit-session" transform="translate(0, 1)" fill="#000000cc" fill-rule="nonzero">
            <polygon id="Path" points="20.1906332 26 20.1906332 10 22.2096966 10 22.2096966 26 20.1906332 28 2.01906332 28 0 26 0 2 2.01906332 0 12.1143799 0 12.1143799 2 2.01906332 2 2.01906332 26"></polygon>
            <polygon id="Path" points="10.0954378 6 12.1143799 6 12.1143799 10 16.1527085 10 16.1527085 12 12.1145011 12 12.1145011 16 10.0954378 16 10.0954378 12 6.05731111 12 6.05731111 10 10.0954378 10"></polygon>
            <polygon id="Path" points="16.1527085 20 6.05731111 20 6.05731111 22 16.1527085 22"></polygon>
        </g>
        <g id="device-camera" transform="translate(14, 0)" fill="#000000cc" fill-rule="nonzero">
            <path d="M7.32028571,0.818181818 L9.57142857,0.818181818 L10,1.22727273 L10,8.59090909 L9.57142857,9 L0.428571429,9 L0,8.59090909 L0,1.22727273 L0.428571429,0.818181818 L2.67971429,0.818181818 L3.41085714,0.119454545 L3.71428571,0 L6.28571429,0 L6.58914286,0.119454545 L7.32028571,0.818181818 Z M1.71428571,1.63636364 C1.24089879,1.63636364 0.857142857,2.00267611 0.857142857,2.45454545 C0.857142857,2.9064148 1.24089879,3.27272727 1.71428571,3.27272727 C2.18767264,3.27272727 2.57142857,2.9064148 2.57142857,2.45454545 C2.57142857,2.00267611 2.18767264,1.63636364 1.71428571,1.63636364 Z M5,2.45454545 C3.57983921,2.45454545 2.42857143,3.55348289 2.42857143,4.90909091 C2.42857143,6.26469893 3.57983921,7.36363636 5,7.36363636 C6.42016079,7.36363636 7.57142857,6.26469893 7.57142857,4.90909091 C7.57142857,3.55348289 6.42016079,2.45454545 5,2.45454545 Z" id="Shape"></path>
        </g>
    </g>
</svg>
