<svg width="30px" height="29.9869014px" viewBox="0 0 30 29.9869014" version="1.1" xmlns="http://www.w3.org/2000/svg" xmlns:xlink="http://www.w3.org/1999/xlink">
    <g id="Page-1" stroke="none" stroke-width="1" fill="none" fill-rule="evenodd">
        <g id="device-camera" transform="translate(16, 0)" fill="#000000cc" fill-rule="nonzero">
            <path d="M10.2484,1.18181818 L13.4,1.18181818 L14,1.77272727 L14,12.4090909 L13.4,13 L0.6,13 L0,12.4090909 L0,1.77272727 L0.6,1.18181818 L3.7516,1.18181818 L4.7752,0.172545455 L5.2,0 L8.8,0 L9.2248,0.172545455 L10.2484,1.18181818 Z M2.4,2.36363636 C1.7372583,2.36363636 1.2,2.89275439 1.2,3.54545455 C1.2,4.1981547 1.7372583,4.72727273 2.4,4.72727273 C3.0627417,4.72727273 3.6,4.1981547 3.6,3.54545455 C3.6,2.89275439 3.0627417,2.36363636 2.4,2.36363636 Z M7,3.54545455 C5.0117749,3.54545455 3.4,5.13280861 3.4,7.09090909 C3.4,9.04900957 5.0117749,10.6363636 7,10.6363636 C8.9882251,10.6363636 10.6,9.04900957 10.6,7.09090909 C10.6,5.13280861 8.9882251,3.54545455 7,3.54545455 Z" id="Shape"></path>
        </g>
        <g id="git-compare" fill="#000000cc" fill-rule="nonzero">
            <path d="M12.7426776,24.001758 L10.2096938,21.4595734 L11.5459924,20.0583692 L15.794225,24.3220332 L15.794225,25.7232374 L11.5459924,29.9869014 L10.1299148,28.56568 L12.6628986,26.0234954 L8.97311904,26.0234954 C7.64907337,26.028843 6.37771864,25.5033231 5.44146938,24.563673 C4.50522013,23.6240229 3.98160223,22.3480501 3.98693045,21.0191949 L3.98693045,9.90964789 C3.03133546,9.70546212 2.15302884,9.23347948 1.45394664,8.54847816 C0.0344690639,7.10905966 -0.389637767,4.95717578 0.376929909,3.08378205 C1.15082332,1.21618449 2.96882002,0 4.98416817,0.00113296354 C5.66819146,-0.0136254712 6.34767927,0.115946166 6.97864361,0.381459799 C8.19950657,0.885525904 9.16894369,1.85848442 9.67118545,3.08378205 C9.93645068,3.71832735 10.0640971,4.40091393 10.0501358,5.08550224 C10.0506194,7.46388921 8.38308467,9.51403934 6.06118491,9.98971669 L6.06118491,20.9991777 C6.06118491,22.657457 7.40062051,24.001758 9.05289806,24.001758 L12.7426776,24.001758 L12.7426776,24.001758 Z M3.40853257,7.48756646 C4.59506975,8.2809452 6.1745855,8.12373247 7.18274527,7.11191065 C8.19090504,6.10008883 8.34754878,4.51483564 7.55704148,3.32398847 C7.2224963,2.82655262 6.75138623,2.43717034 6.20079819,2.20302517 C5.65734188,1.98085309 5.06051231,1.92513239 4.48554931,2.04288755 C3.29412257,2.27412449 2.36246832,3.20916289 2.13206829,4.40491737 C2.01473931,4.98196887 2.07025834,5.58096638 2.29162633,6.12639673 C2.52497995,6.68087323 2.91190819,7.15327919 3.40853257,7.48756646 L3.40853257,7.48756646 Z" id="Shape"></path>
        </g>
        <g id="git-pull-request-create" transform="translate(18.0005, 14.9685)" fill="#000000cc" fill-rule="nonzero">
            <path d="M6.07708459,0 L6.07708459,5.02371778 C7.36775393,5.28977064 8.50204788,6.05264058 9.2351428,7.14767136 C9.78115286,7.97165335 10.0731582,8.93763223 10.0731582,9.92361068 C10.0891585,10.6095957 9.95915614,11.2915808 9.69315124,11.923567 C8.91244247,13.818684 7.04835954,15.040177 4.99906472,14.9994997 C4.01093241,15.0026834 3.04433297,14.7109047 2.22301355,14.1615181 C0.537645287,13.0425767 -0.302122181,11.0144064 0.0989743994,9.03163018 C0.288977902,8.05965142 0.760986602,7.16767092 1.45899947,6.46568626 C2.15701233,5.77970126 3.03902859,5.30771157 3.99704625,5.10571599 L3.99704625,0 C4.99906472,0 6.07708459,0 6.07708459,0 Z M7.71911485,8.6096394 C7.46272193,8.13082846 7.08114468,7.73060322 6.61509451,7.45166471 C6.1511482,7.17036881 5.61759122,7.02485913 5.07506612,7.03167389 C4.17708306,7.02903372 3.32545954,7.43010348 2.75555451,8.12404151 C2.18564948,8.81797955 1.9578133,9.73130095 2.13501193,10.6115956 C2.36830719,11.8047108 3.30169482,12.7372699 4.49505543,12.9695441 C5.07106605,13.0855416 5.66707703,13.0295428 6.21508713,12.8095476 C6.76709731,12.5755527 7.23910601,12.1855612 7.5751122,11.6895721 C7.87511773,11.237582 8.04512086,10.7095935 8.07312138,10.1696053 C8.09748973,9.62725047 7.97519723,9.08835607 7.71911485,8.6096394 L7.71911485,8.6096394 Z" id="Shape"></path>
        </g>
    </g>
</svg>
