
<svg width="31px" height="29.9869014px" viewBox="0 0 31 29.9869014" version="1.1" xmlns="http://www.w3.org/2000/svg" xmlns:xlink="http://www.w3.org/1999/xlink">
    <g id="Page-1" stroke="none" stroke-width="1" fill="none" fill-rule="evenodd">
        <g id="git-compare" fill="#000000cc" fill-rule="nonzero">
            <path d="M12.7426776,24.001758 L10.2096938,21.4595734 L11.5459924,20.0583692 L15.794225,24.3220332 L15.794225,25.7232374 L11.5459924,29.9869014 L10.1299148,28.56568 L12.6628986,26.0234954 L8.97311904,26.0234954 C7.64907337,26.028843 6.37771864,25.5033231 5.44146938,24.563673 C4.50522013,23.6240229 3.98160223,22.3480501 3.98693045,21.0191949 L3.98693045,9.90964789 C3.03133546,9.70546212 2.15302884,9.23347948 1.45394664,8.54847816 C0.0344690639,7.10905966 -0.389637767,4.95717578 0.376929909,3.08378205 C1.15082332,1.21618449 2.96882002,0 4.98416817,0.00113296354 C5.66819146,-0.0136254712 6.34767927,0.115946166 6.97864361,0.381459799 C8.19950657,0.885525904 9.16894369,1.85848442 9.67118545,3.08378205 C9.93645068,3.71832735 10.0640971,4.40091393 10.0501358,5.08550224 C10.0506194,7.46388921 8.38308467,9.51403934 6.06118491,9.98971669 L6.06118491,20.9991777 C6.06118491,22.657457 7.40062051,24.001758 9.05289806,24.001758 L12.7426776,24.001758 L12.7426776,24.001758 Z M3.40853257,7.48756646 C4.59506975,8.2809452 6.1745855,8.12373247 7.18274527,7.11191065 C8.19090504,6.10008883 8.34754878,4.51483564 7.55704148,3.32398847 C7.2224963,2.82655262 6.75138623,2.43717034 6.20079819,2.20302517 C5.65734188,1.98085309 5.06051231,1.92513239 4.48554931,2.04288755 C3.29412257,2.27412449 2.36246832,3.20916289 2.13206829,4.40491737 C2.01473931,4.98196887 2.07025834,5.58096638 2.29162633,6.12639673 C2.52497995,6.68087323 2.91190819,7.15327919 3.40853257,7.48756646 L3.40853257,7.48756646 Z" id="Shape"></path>
        </g>
        <g id="git-pull-request-create" transform="translate(18.0005, 16.9685)" fill="#000000cc" fill-rule="nonzero">
            <path d="M6.07708459,0 L6.07708459,3.02371778 C7.36775393,3.28977064 8.50204788,4.05264058 9.2351428,5.14767136 C9.78115286,5.97165335 10.0731582,6.93763223 10.0731582,7.92361068 C10.0891585,8.60959569 9.95915614,9.29158078 9.69315124,9.92356697 C8.91244247,11.818684 7.04835954,13.040177 4.99906472,12.9994997 C4.01093241,13.0026834 3.04433297,12.7109047 2.22301355,12.1615181 C0.537645287,11.0425767 -0.302122181,9.01440643 0.0989743994,7.03163018 C0.288977902,6.05965142 0.760986602,5.16767092 1.45899947,4.46568626 C2.15701233,3.77970126 3.03902859,3.30771157 3.99704625,3.10571599 L3.99704625,0 C4.99906472,0 6.07708459,0 6.07708459,0 Z M7.71911485,6.6096394 C7.46272193,6.13082846 7.08114468,5.73060322 6.61509451,5.45166471 C6.1511482,5.17036881 5.61759122,5.02485913 5.07506612,5.03167389 C4.17708306,5.02903372 3.32545954,5.43010348 2.75555451,6.12404151 C2.18564948,6.81797955 1.9578133,7.73130095 2.13501193,8.61159565 C2.36830719,9.80471082 3.30169482,10.7372699 4.49505543,10.9695441 C5.07106605,11.0855416 5.66707703,11.0295428 6.21508713,10.8095476 C6.76709731,10.5755527 7.23910601,10.1855612 7.5751122,9.68957208 C7.87511773,9.23758196 8.04512086,8.7095935 8.07312138,8.16960531 C8.09748973,7.62725047 7.97519723,7.08835607 7.71911485,6.6096394 L7.71911485,6.6096394 Z" id="Shape"></path>
        </g>
        <g id="debug-restart" transform="translate(15, 0)" fill="#000000cc" fill-rule="nonzero">
            <path d="M14.0408163,8.00031061 C14.041768,10.8328636 12.1018092,13.2801925 9.38776077,13.8703103 C6.67371238,14.4604281 3.92509136,13.032541 2.79510204,10.4454756 L0.978285714,11.1987571 C2.46280384,14.6708118 6.12937884,16.6041888 9.76245268,15.8306292 C13.3955265,15.0570695 15.999124,11.7886377 16,8.00031061 C16,4.57728614 13.8666482,1.53349253 10.6927339,0.428640424 C7.51881954,-0.676211686 4.0079529,0.402752662 1.95918367,3.11264704 L1.95918367,0.667482017 L0,0.667482017 L0,6.00044827 L0.979591837,7.00037944 L5.55102041,7.00037944 L5.55102041,5.0005171 L3.072,5.0005171 C4.40160018,2.64762621 7.11397586,1.5001144 9.6843381,2.20306682 C12.2547003,2.90601924 14.0417241,5.2840439 14.0408163,8.00031061 Z" id="Path"></path>
        </g>
        <circle id="Oval" fill="#000000cc" fill-rule="nonzero" cx="23" cy="8" r="2"></circle>
    </g>
</svg>
