
<svg width="32" height="32" viewBox="-4 -1 32 32" version="1.1" xmlns="http://www.w3.org/2000/svg" xmlns:xlink="http://www.w3.org/1999/xlink">
    <g id="Page-1" stroke="none" stroke-width="1" fill="none" fill-rule="evenodd">
        <g id="gear" transform="translate(9, 0)" fill="#000000cc" fill-rule="nonzero">
            <path d="M9,0 L9.53571429,2.57142857 L11.7857143,1.17857143 L13.9285714,3.32142857 L12.4285714,5.57142857 L15,6 L15,9 L12.4285714,9.53571429 L13.9285714,11.7857143 L11.7857143,13.9285714 L9.53571429,12.4285714 L9,15 L6,15 L5.46428571,12.4285714 L3.21428571,13.8214286 L1.07142857,11.6785714 L2.57142857,9.42857143 L0,9 L0,6 L2.57142857,5.46428571 L1.17857143,3.21428571 L3.32142857,1.07142857 L5.57142857,2.57142857 L6,0 L9,0 Z M7.5,10.1785714 C9.10714286,10.1785714 10.1785714,9.10714286 10.1785714,7.5 C10.1785714,5.89285714 9.10714286,4.82142857 7.5,4.82142857 C5.89285714,4.82142857 4.82142857,5.89285714 4.82142857,7.5 C4.82142857,9.10714286 5.89285714,10.1785714 7.5,10.1785714 Z" id="Shape"></path>
        </g>
        <g id="edit-session" transform="translate(0, 1)" fill="#000000cc" fill-rule="nonzero">
            <polygon id="Path" points="20.1906332 26 20.1906332 15 22.2096966 14 22.2096966 26 20.1906332 28 2.01906332 28 0 26 0 2 2.01906332 0 10.1143799 0 8.11437994 2 2.01906332 2 2.01906332 26"></polygon>
            <polygon id="Path" points="10.0954378 14 12.1143799 14 12.1143799 17 15.1527085 17 15.1527085 19 12.1145011 19 12.1145011 22 10.0954378 22 10.0954378 19 7.05731111 19 7.05731111 17 10.0954378 17"></polygon>
            <polygon id="Path" points="15.1527085 23 7.05731111 23 7.05731111 25 15.1527085 25"></polygon>
        </g>
    </g>
</svg>
