<svg width="32" height="32" viewBox="-4 -1 32 32" version="1.1" xmlns="http://www.w3.org/2000/svg" xmlns:xlink="http://www.w3.org/1999/xlink">
    <g id="Page-1" stroke="none" stroke-width="1" fill="none" fill-rule="evenodd">
        <g id="edit-session" fill="#000000cc" fill-rule="nonzero">
            <polygon id="Path" points="20.1906332 27 20.1906332 12 22.2096966 12 22.2096966 27 20.1906332 29 2.01906332 29 0 27 0 3 2.01906332 1 12.1143799 1 12.1143799 3 2.01906332 3 2.01906332 27"></polygon>
            <polygon id="Path" points="10.0954378 7 12.1143799 7 12.1143799 11 16.1527085 11 16.1527085 13 12.1145011 13 12.1145011 17 10.0954378 17 10.0954378 13 6.05731111 13 6.05731111 11 10.0954378 11"></polygon>
            <polygon id="Path" points="16.1527085 21 6.05731111 21 6.05731111 23 16.1527085 23"></polygon>
            <path d="M19.7006066,0 C20.1575206,0 20.5996955,0.061722 21.0269293,0.185168 C21.4541631,0.308614 21.8577738,0.490842 22.2375596,0.731854 C22.6173454,0.972868 22.9555385,1.25502 23.2522601,1.57834 C23.3121669,1.64361289 23.3701388,1.71080322 23.4261757,1.77991083 L23.4578857,1.75500488 C23.6425876,2.01069601 23.8090493,2.29052961 23.9478198,2.58395054 L24,2.68934 C24.1164677,2.95973263 24.2121939,3.23809259 24.2773207,3.51870857 C24.4231975,4.14698748 24.4399862,4.77956746 24.3276518,5.41664737 C24.2483095,5.86661984 24.1107443,6.29135952 23.9149913,6.69066754 C23.7192382,7.08997557 23.4696806,7.45580893 23.1663928,7.78797573 C22.8630853,8.12013906 22.5264853,8.40419768 22.1565381,8.64034697 C22.0436896,8.71233291 21.9272928,8.77922786 21.8073504,8.84102063 C21.6450516,8.93173387 21.477107,9.0148649 21.3027333,9.08912 C20.7093306,9.34188 20.0892762,9.46826 19.4423684,9.46826 C18.9854543,9.46826 18.5432795,9.40654 18.1160457,9.2831 C17.6888119,9.15966 17.2852011,8.97742 16.9054153,8.73642 C16.5256295,8.4954 16.1874364,8.21324 15.8906341,7.88992 C15.5940337,7.56662 15.3446793,7.19628 15.1429749,6.77892 L16.5314848,6.12642 C16.6621182,6.4027 16.8282871,6.65254 17.0299915,6.87592 C17.2318978,7.0993 17.4632825,7.29034 17.7243474,7.44906 C17.9854123,7.60776 18.2583896,7.73122 18.5432795,7.81938 C18.8281693,7.90756 19.1277983,7.95166 19.4423684,7.95166 C19.8696022,7.95166 20.2762415,7.86936 20.6618826,7.70476 C21.0477256,7.54016 21.3948026,7.31092 21.7033155,7.017 L21.7450196,7.05310004 C21.8492807,6.96209928 21.9478713,6.86371809 22.0407967,6.75793735 C22.2424192,6.52839659 22.4114056,6.28100497 22.5476968,6.01575208 C22.6840078,5.75050265 22.7794678,5.46308358 22.8340923,5.15329254 C22.9082807,4.73254938 22.8978432,4.31779655 22.8027097,3.90943172 C22.7076113,3.50086805 22.4455785,3.08569951 22.2096966,2.73083496 L22.2209749,2.721 L22.1127815,2.59236 C21.9615032,2.424825 21.7935297,2.27547 21.6088612,2.14431188 L21.4186275,2.01922 C21.1573607,1.8605 20.8843834,1.73706 20.5996955,1.64888 C20.3148056,1.5607 20.0149747,1.51662 19.7006066,1.51662 C19.2731709,1.51662 18.8667334,1.59892 18.4810923,1.7635 C18.0952493,1.9281 17.7481723,2.15736 17.4394575,2.45128 L18.5610472,2.45128 L18.5610472,3.57992 L15.1429749,3.57992 L15.1429749,0.193986 L16.2823324,0.193986 L16.2823324,1.44608 C16.7273339,0.987562 17.246637,0.631922 17.8400397,0.379154 C18.4336443,0.126384 19.0536987,0 19.7006066,0 Z" id="Combined-Shape"></path>
        </g>
        <circle id="Oval" fill="#000000cc" fill-rule="nonzero" cx="19.65" cy="4.75" r="1"></circle>
    </g>
</svg>
